# xmcd
#
# Track frame offsets: 
#        150
#        20258
#        44683
#        61103
#        76001
#        94011
#        109821
#        137229
#        157879
#        179867
#
# Disc length: 2708 seconds
#
# Revision: 0
# Processed by: cddbd v1.5.2PL0 Copyright (c) Steve Scherf et al.
# Submitted via: ExactAudioCopy v0.99pb4
#
DISCID=7c0a920a
DTITLE=The Suede Brothers - The Suede Brothers
DYEAR=2007
DGENRE=Southern Rock
TTITLE0=Shotgun Philly
TTITLE1=Jolly Rodger
TTITLE2=Tired
TTITLE3=Collar Blues
TTITLE4=Fireplace Fire
TTITLE5=Sweet Nothing
TTITLE6=You've Got to Run
TTITLE7=Red
TTITLE8=Serenade
TTITLE9=Lay It Down
EXTD=
EXTT0=
EXTT1=
EXTT2=
EXTT3=
EXTT4=
EXTT5=
EXTT6=
EXTT7=
EXTT8=
EXTT9=
PLAYORDER=
